<svg width="1024" height="1024" viewBox="0 0 1024 1024" fill="none" xmlns="http://www.w3.org/2000/svg">
<rect width="1024" height="1024" rx="500" fill="url(#paint0_linear_203_95)"/>
<path d="M392.836 285.82C432.149 258.01 480.117 244.842 528.278 248.641C576.439 252.44 621.698 272.961 656.069 306.583C690.439 340.205 711.714 384.768 716.138 432.409C720.563 480.05 707.852 527.707 680.251 566.973C652.649 606.238 611.929 634.589 565.276 647.022C518.63 659.454 469.049 655.174 425.278 634.938C418.204 632.282 410.52 631.644 403.098 633.097L333.316 653.303C333.312 653.305 333.308 653.306 333.304 653.307C329.858 654.212 326.236 654.231 322.78 653.361C319.325 652.492 316.151 650.763 313.559 648.338C310.968 645.913 309.045 642.872 307.973 639.505C306.901 636.138 306.715 632.556 307.433 629.097L307.447 629.047L329.221 562.437C330.947 554.65 330.286 546.531 327.322 539.118C306.352 496.025 301.424 446.982 313.408 400.642C325.393 354.295 353.523 313.629 392.836 285.82ZM528.202 249.588C480.266 245.807 432.522 258.912 393.393 286.592C354.265 314.272 326.266 354.747 314.337 400.877C302.501 446.646 307.24 495.063 327.707 537.716L328.193 538.722L328.207 538.753C331.25 546.353 331.927 554.681 330.152 562.665C330.149 562.68 330.145 562.695 330.14 562.709L308.367 629.312C307.688 632.604 307.866 636.015 308.887 639.22C309.91 642.433 311.745 645.334 314.217 647.648C316.69 649.962 319.719 651.612 323.016 652.442C326.312 653.271 329.767 653.253 333.054 652.39L402.85 632.18L402.891 632.17C410.499 630.676 418.379 631.329 425.631 634.055C425.642 634.06 425.653 634.064 425.664 634.069C469.234 654.218 518.592 658.481 565.027 646.106C611.462 633.73 651.992 605.512 679.464 566.43C706.937 527.348 719.587 479.914 715.183 432.496C710.78 385.078 689.605 340.723 655.394 307.259C621.184 273.794 576.138 253.369 528.202 249.588Z" fill="#AE3636" stroke="black" stroke-width="5" stroke-linecap="round" stroke-linejoin="round"/>
<rect x="380" y="420" width="66" height="64" rx="32" fill="black"/>
<rect x="483" y="420" width="65" height="64" rx="32" fill="black"/>
<rect x="483" y="420" width="56.5217" height="57.1429" rx="28.2609" fill="black"/>
<rect x="587" y="420" width="67" height="64" rx="32" fill="black"/>
<rect x="587" y="420" width="58.2609" height="57.1429" rx="28.5714" fill="black"/>
<path d="M353.53 716.02C348.653 716.02 344.917 717.508 342.32 720.485C339.723 723.462 338.425 727.673 338.425 733.12C338.425 738.63 339.85 742.873 342.7 745.85C345.613 748.827 349.508 750.315 354.385 750.315C356.982 750.315 359.167 749.967 360.94 749.27C362.777 748.573 364.518 747.782 366.165 746.895C367.242 747.782 368.065 748.858 368.635 750.125C369.268 751.328 369.585 752.753 369.585 754.4C369.585 756.997 368.128 759.213 365.215 761.05C362.365 762.823 357.995 763.71 352.105 763.71C347.862 763.71 343.872 763.108 340.135 761.905C336.398 760.702 333.137 758.865 330.35 756.395C327.563 753.862 325.347 750.695 323.7 746.895C322.117 743.032 321.325 738.44 321.325 733.12C321.325 728.18 322.085 723.842 323.605 720.105C325.188 716.305 327.31 713.107 329.97 710.51C332.693 707.913 335.86 705.95 339.47 704.62C343.08 703.29 346.943 702.625 351.06 702.625C356.887 702.625 361.383 703.575 364.55 705.475C367.78 707.375 369.395 709.813 369.395 712.79C369.395 714.437 368.983 715.862 368.16 717.065C367.337 718.268 366.387 719.218 365.31 719.915C363.663 718.838 361.89 717.92 359.99 717.16C358.153 716.4 356 716.02 353.53 716.02ZM422.812 761.905C422.179 762.095 421.166 762.285 419.772 762.475C418.442 762.665 417.049 762.76 415.592 762.76C414.199 762.76 412.932 762.665 411.792 762.475C410.716 762.285 409.797 761.905 409.037 761.335C408.277 760.765 407.676 760.005 407.232 759.055C406.852 758.042 406.662 756.743 406.662 755.16V734.07C406.662 731.473 405.997 729.668 404.667 728.655C403.401 727.578 401.817 727.04 399.917 727.04C398.651 727.04 397.447 727.198 396.307 727.515C395.167 727.832 394.249 728.212 393.552 728.655V761.905C392.919 762.095 391.906 762.285 390.512 762.475C389.182 762.665 387.789 762.76 386.332 762.76C384.939 762.76 383.672 762.665 382.532 762.475C381.456 762.285 380.537 761.905 379.777 761.335C379.017 760.765 378.416 760.005 377.972 759.055C377.592 758.042 377.402 756.743 377.402 755.16V700.06C378.099 699.933 379.112 699.775 380.442 699.585C381.836 699.332 383.229 699.205 384.622 699.205C386.016 699.205 387.251 699.3 388.327 699.49C389.467 699.68 390.417 700.06 391.177 700.63C391.937 701.2 392.507 701.992 392.887 703.005C393.331 703.955 393.552 705.222 393.552 706.805V716.115C394.376 715.798 395.611 715.45 397.257 715.07C398.967 714.627 400.836 714.405 402.862 714.405C409.132 714.405 414.009 715.988 417.492 719.155C421.039 722.258 422.812 726.913 422.812 733.12V761.905ZM452.544 751.74C453.62 751.74 454.792 751.645 456.059 751.455C457.389 751.202 458.37 750.885 459.004 750.505V742.905L452.164 743.475C450.39 743.602 448.934 743.982 447.794 744.615C446.654 745.248 446.084 746.198 446.084 747.465C446.084 748.732 446.559 749.777 447.509 750.6C448.522 751.36 450.2 751.74 452.544 751.74ZM451.784 714.405C455.204 714.405 458.307 714.753 461.094 715.45C463.944 716.147 466.35 717.223 468.314 718.68C470.34 720.073 471.892 721.878 472.969 724.095C474.045 726.248 474.584 728.813 474.584 731.79V753.07C474.584 754.717 474.109 756.078 473.159 757.155C472.272 758.168 471.195 759.055 469.929 759.815C465.812 762.285 460.017 763.52 452.544 763.52C449.187 763.52 446.147 763.203 443.424 762.57C440.764 761.937 438.452 760.987 436.489 759.72C434.589 758.453 433.1 756.838 432.024 754.875C431.01 752.912 430.504 750.632 430.504 748.035C430.504 743.665 431.802 740.308 434.399 737.965C436.995 735.622 441.017 734.165 446.464 733.595L458.909 732.265V731.6C458.909 729.763 458.085 728.465 456.439 727.705C454.855 726.882 452.544 726.47 449.504 726.47C447.097 726.47 444.754 726.723 442.474 727.23C440.194 727.737 438.135 728.37 436.299 729.13C435.475 728.56 434.779 727.705 434.209 726.565C433.639 725.362 433.354 724.127 433.354 722.86C433.354 721.213 433.734 719.915 434.494 718.965C435.317 717.952 436.552 717.097 438.199 716.4C440.035 715.703 442.189 715.197 444.659 714.88C447.192 714.563 449.567 714.405 451.784 714.405ZM500.609 746.135C500.609 747.782 501.115 748.953 502.129 749.65C503.205 750.347 504.694 750.695 506.594 750.695C507.544 750.695 508.525 750.632 509.539 750.505C510.552 750.315 511.439 750.093 512.199 749.84C512.769 750.537 513.244 751.328 513.624 752.215C514.067 753.038 514.289 754.052 514.289 755.255C514.289 757.662 513.37 759.625 511.534 761.145C509.76 762.665 506.594 763.425 502.034 763.425C496.46 763.425 492.154 762.158 489.114 759.625C486.137 757.092 484.649 752.975 484.649 747.275V706.615C485.345 706.425 486.327 706.235 487.594 706.045C488.924 705.792 490.317 705.665 491.774 705.665C494.56 705.665 496.714 706.172 498.234 707.185C499.817 708.135 500.609 710.193 500.609 713.36V719.44H513.054C513.434 720.137 513.782 721.023 514.099 722.1C514.479 723.113 514.669 724.253 514.669 725.52C514.669 727.737 514.162 729.352 513.149 730.365C512.199 731.315 510.9 731.79 509.254 731.79H500.609V746.135ZM575.221 761.62C574.524 761.81 573.416 762 571.896 762.19C570.439 762.38 568.982 762.475 567.526 762.475C566.069 762.475 564.771 762.348 563.631 762.095C562.554 761.905 561.636 761.525 560.876 760.955C560.116 760.385 559.546 759.593 559.166 758.58C558.786 757.567 558.596 756.237 558.596 754.59V739.77H540.356V761.62C539.659 761.81 538.551 762 537.031 762.19C535.574 762.38 534.117 762.475 532.661 762.475C531.204 762.475 529.906 762.348 528.766 762.095C527.689 761.905 526.771 761.525 526.011 760.955C525.251 760.385 524.681 759.593 524.301 758.58C523.921 757.567 523.731 756.237 523.731 754.59V704.43C524.427 704.303 525.536 704.145 527.056 703.955C528.576 703.702 530.032 703.575 531.426 703.575C532.882 703.575 534.149 703.702 535.226 703.955C536.366 704.145 537.316 704.525 538.076 705.095C538.836 705.665 539.406 706.457 539.786 707.47C540.166 708.483 540.356 709.813 540.356 711.46V726.66H558.596V704.43C559.292 704.303 560.401 704.145 561.921 703.955C563.441 703.702 564.897 703.575 566.291 703.575C567.747 703.575 569.014 703.702 570.091 703.955C571.231 704.145 572.181 704.525 572.941 705.095C573.701 705.665 574.271 706.457 574.651 707.47C575.031 708.483 575.221 709.813 575.221 711.46V761.62ZM586.324 716.495C586.957 716.305 587.939 716.115 589.269 715.925C590.662 715.735 592.087 715.64 593.544 715.64C594.937 715.64 596.172 715.735 597.249 715.925C598.389 716.115 599.339 716.495 600.099 717.065C600.859 717.635 601.429 718.427 601.809 719.44C602.252 720.39 602.474 721.657 602.474 723.24V743.665C602.474 746.262 603.107 748.13 604.374 749.27C605.64 750.347 607.477 750.885 609.884 750.885C611.34 750.885 612.512 750.758 613.399 750.505C614.349 750.252 615.077 749.998 615.584 749.745V716.495C616.217 716.305 617.199 716.115 618.529 715.925C619.922 715.735 621.347 715.64 622.804 715.64C624.197 715.64 625.432 715.735 626.509 715.925C627.649 716.115 628.599 716.495 629.359 717.065C630.119 717.635 630.689 718.427 631.069 719.44C631.512 720.39 631.734 721.657 631.734 723.24V752.12C631.734 755.287 630.404 757.662 627.744 759.245C625.527 760.638 622.867 761.683 619.764 762.38C616.724 763.14 613.399 763.52 609.789 763.52C606.369 763.52 603.202 763.14 600.289 762.38C597.439 761.62 594.969 760.448 592.879 758.865C590.789 757.282 589.174 755.255 588.034 752.785C586.894 750.252 586.324 747.212 586.324 743.665V716.495ZM641.807 700.155C642.44 699.965 643.453 699.775 644.847 699.585C646.24 699.332 647.665 699.205 649.122 699.205C650.515 699.205 651.75 699.3 652.827 699.49C653.967 699.68 654.917 700.06 655.677 700.63C656.437 701.2 657.007 701.992 657.387 703.005C657.767 703.955 657.957 705.222 657.957 706.805V716.115C659.54 715.482 661.028 715.038 662.422 714.785C663.878 714.532 665.462 714.405 667.172 714.405C670.212 714.405 673.093 714.943 675.817 716.02C678.54 717.097 680.947 718.68 683.037 720.77C685.127 722.797 686.773 725.33 687.977 728.37C689.18 731.41 689.782 734.925 689.782 738.915C689.782 743.032 689.148 746.642 687.882 749.745C686.678 752.785 684.968 755.318 682.752 757.345C680.535 759.372 677.812 760.923 674.582 762C671.415 763.013 667.9 763.52 664.037 763.52C659.857 763.52 656.31 763.013 653.397 762C650.483 761.05 648.013 759.847 645.987 758.39C643.2 756.427 641.807 753.893 641.807 750.79V700.155ZM664.037 750.79C666.95 750.79 669.198 749.808 670.782 747.845C672.428 745.818 673.252 742.842 673.252 738.915C673.252 734.925 672.428 731.948 670.782 729.985C669.135 728.022 666.918 727.04 664.132 727.04C662.865 727.04 661.757 727.167 660.807 727.42C659.92 727.673 658.938 728.053 657.862 728.56V749.27C658.558 749.713 659.382 750.093 660.332 750.41C661.345 750.663 662.58 750.79 664.037 750.79Z" fill="black"/>
<defs>
<linearGradient id="paint0_linear_203_95" x1="512" y1="0" x2="512" y2="1024" gradientUnits="userSpaceOnUse">
<stop stop-color="#075E54"/>
<stop offset="1" stop-color="#A4C9C5"/>
</linearGradient>
</defs>
</svg>
